IKResults
version=1
nRows=7
nColumns=40
inDegrees=yes

Units are S.I. units (second, meters, Newtons, ...)
Angles are in degrees.

endheader
time	pelvis_tilt	pelvis_list	pelvis_rotation	pelvis_tx	pelvis_ty	pelvis_tz	hip_flexion_r	hip_adduction_r	hip_rotation_r	knee_angle_r	knee_angle_r_beta	ankle_angle_r	subtalar_angle_r	mtp_angle_r	hip_flexion_l	hip_adduction_l	hip_rotation_l	knee_angle_l	knee_angle_l_beta	ankle_angle_l	subtalar_angle_l	mtp_angle_l	lumbar_extension	lumbar_bending	lumbar_rotation	arm_flex_r	arm_add_r	arm_rot_r	elbow_flex_r	pro_sup_r	wrist_flex_r	wrist_dev_r	arm_flex_l	arm_add_l	arm_rot_l	elbow_flex_l	pro_sup_l	wrist_flex_l	wrist_dev_l
      0.00000000	     15.88696619	     -0.32046562	      6.98643285	     -1.40920189	      0.95603064	     -1.42860628	    -17.23010434	      6.50804618	    -13.96311358	    -12.38563498	     -0.21617011	     10.31389592	     -2.39117985	     -7.02011909	     -1.66793948	      1.63301812	     -1.87839917	    -43.15275407	     -0.75315764	     14.78184255	     18.65426687	     18.61547221	    -23.82736155	      0.34005887	      2.07273759	     -2.33304801	    -11.41211687	      1.90282656	     30.23623791	     89.95437384	      0.00000000	      0.00000000	      1.72351985	      9.06180876	      6.20687356	     23.95863676	     89.95437384	      0.00000000	      0.00000000
      0.01000000	     15.98615000	     -0.21188888	      6.76860180	     -1.40381369	      0.95585688	     -1.42864530	    -17.69887105	      6.37562599	    -13.66530271	    -12.41218751	     -0.21663354	     10.48902120	     -2.21263351	     -6.85802762	     -1.36599011	      1.47694643	     -1.94860528	    -41.47203921	     -0.72382363	     14.73664217	     18.57401858	     16.88754369	    -23.97054737	      0.15816069	      2.26505849	     -2.21370613	    -11.35374991	      1.99506145	     30.16546387	     89.95437384	      0.00000000	      0.00000000	      1.42180676	      9.09139393	      6.21931230	     23.54940468	     89.95437384	      0.00000000	      0.00000000
      0.02000000	     15.96091075	     -0.09755491	      6.36800880	     -1.39853686	      0.95546280	     -1.42841105	    -18.01384999	      6.21225890	    -12.90654127	    -12.46162556	     -0.21749640	     10.51949845	     -2.94317525	     -7.28555726	     -0.96697478	      1.32420911	     -1.62199188	    -39.67865187	     -0.69252312	     14.46266173	     18.38576738	     16.19929090	    -23.98424877	     -0.11075695	      2.62688508	     -2.10010823	    -11.31369315	      2.21363718	     30.08864998	     89.95437384	      0.00000000	      0.00000000	      1.04479214	      9.18388004	      5.95299061	     23.31716997	     89.95437384	      0.00000000	      0.00000000
      0.03000000	     15.83782545	      0.01866116	      6.16307875	     -1.39330720	      0.95485378	     -1.42841540	    -18.10381001	      5.99690503	    -12.85570363	    -12.78059916	     -0.22306354	     10.86440676	     -2.78487910	     -6.92636090	     -0.40929141	      1.18650473	     -1.45661271	    -37.95844342	     -0.66249982	     14.12250594	     18.13398029	     14.34047361	    -23.91169385	     -0.31837989	      2.78960409	     -1.97883862	    -11.24956197	      2.44710647	     29.98637266	     89.95437384	      0.00000000	      0.00000000	      0.70515871	      9.23838015	      5.75774987	     22.96086831	     89.95437384	      0.00000000	      0.00000000
      0.04000000	     15.79880190	      0.22181311	      5.91566620	     -1.38798554	      0.95440644	     -1.42846024	    -18.33928562	      5.69096100	    -12.76012252	    -13.01579864	     -0.22716854	     11.14279178	     -2.48922585	     -6.40616889	     -0.05041504	      0.93561440	     -1.24449515	    -36.05746845	     -0.62932154	     13.56790443	     17.80797428	     12.40329766	    -23.92581366	     -0.62142530	      2.97094925	     -1.86179965	    -11.15575933	      2.63735749	     29.87906365	     89.95437384	      0.00000000	      0.00000000	      0.37329263	      9.32594029	      5.42313846	     22.65670188	     89.95437384	      0.00000000	      0.00000000
      0.05000000	     15.46421134	      0.20177701	      5.77030782	     -1.38287344	      0.95342818	     -1.42846010	    -18.17283286	      5.64011842	    -12.59655066	    -13.28915190	     -0.23193946	     11.36690900	     -2.64634694	     -6.37258695	      0.77674709	      0.90620055	     -1.09466188	    -34.36018595	     -0.59969838	     13.02427860	     17.11809226	     12.12307146	    -23.61882309	     -0.69605199	      3.13054232	     -1.71263087	    -11.05304092	      2.83436486	     29.71277105	     89.95437384	      0.00000000	      0.00000000	      0.05365830	      9.39431800	      5.12482106	     22.31601068	     89.95437384	      0.00000000	      0.00000000
      0.06000000	     15.50337033	      0.57763068	      5.40726044	     -1.37733890	      0.95314296	     -1.42859855	    -18.54372714	      5.13081829	    -12.30283466	    -13.48209350	     -0.23530692	     11.65610847	     -2.93644253	     -6.40639780	      0.86362070	      0.46818136	     -0.61867915	    -32.17375842	     -0.56153802	     12.16966669	     16.29476327	     11.63684162	    -23.69821997	     -1.18579044	      3.35111274	     -1.56787273	    -10.93110268	      3.02709515	     29.48312508	     89.95437384	      0.00000000	      0.00000000	     -0.24182231	      9.46123232	      4.75003478	     21.92326423	     89.95437384	      0.00000000	      0.00000000
